<?xml version="1.0" encoding="utf-8"?>
<!-- Generator: Adobe Illustrator 16.0.0, SVG Export Plug-In . SVG Version: 6.00 Build 0)  -->
<!DOCTYPE svg PUBLIC "-//W3C//DTD SVG 1.1//EN" "http://www.w3.org/Graphics/SVG/1.1/DTD/svg11.dtd">
<svg version="1.1" id="图层_1" xmlns="http://www.w3.org/2000/svg" xmlns:xlink="http://www.w3.org/1999/xlink" x="0px" y="0px"
	 width="39.69px" height="39.69px" viewBox="0 0 39.69 39.69" enable-background="new 0 0 39.69 39.69" xml:space="preserve">
<path fill-rule="evenodd" clip-rule="evenodd" fill="none" d="M31.4,5.813c0-2.899-2.313-5.25-5.167-5.25H12.454
	c-2.854,0-5.167,2.351-5.167,5.25v28c0,2.898,2.313,5.25,5.167,5.25h13.779c2.854,0,5.167-2.352,5.167-5.25V5.813z M24.51,35.562
	H14.176c-1.902,0-3.445-1.566-3.445-3.498v-3.501h17.224v3.501C27.955,33.995,26.413,35.562,24.51,35.562z M21.065,31.188
	c0-0.484-0.385-0.876-0.861-0.876h-1.723c-0.475,0-0.86,0.392-0.86,0.876v1.749c0,0.484,0.386,0.875,0.86,0.875h1.723
	c0.476,0,0.861-0.391,0.861-0.875V31.188z M10.731,11.063h17.224v13.999H10.731V11.063z M14.176,4.062H24.51
	c1.903,0,3.445,1.568,3.445,3.5H10.731C10.731,5.63,12.274,4.062,14.176,4.062z"/>
</svg>
