<?xml version="1.0" encoding="utf-8"?>
<!-- Generator: Adobe Illustrator 16.0.0, SVG Export Plug-In . SVG Version: 6.00 Build 0)  -->
<!DOCTYPE svg PUBLIC "-//W3C//DTD SVG 1.1//EN" "http://www.w3.org/Graphics/SVG/1.1/DTD/svg11.dtd">
<svg version="1.1" id="图层_1" xmlns="http://www.w3.org/2000/svg" xmlns:xlink="http://www.w3.org/1999/xlink" x="0px" y="0px"
	 width="39.69px" height="39.69px" viewBox="0 0 39.69 39.69" enable-background="new 0 0 39.69 39.69" xml:space="preserve">
<path fill-rule="evenodd" clip-rule="evenodd" fill="none" d="M37.5,28.75c0,0-0.835-5.319-11.026-7.429
	c1.9-2.219,3.1-5.337,3.1-8.815c0-6.728-4.436-12.182-9.907-12.182c-5.472,0-9.908,5.454-9.908,12.182
	c0,3.478,1.199,6.596,3.101,8.815C2.667,23.431,1.833,28.75,1.833,28.75v4.06c0,2.243,3.755,6.092,5.944,6.092h23.778
	c2.188,0,5.944-3.849,5.944-6.092V28.75z M29.573,34.841H9.759c-1.094,0-3.962-0.91-3.962-2.031v-2.03V28.75
	c2.546-2.398,7.55-4.062,13.87-4.062c6.32,0,11.324,1.663,13.871,4.062v2.029v2.03C33.537,33.931,30.669,34.841,29.573,34.841z
	 M19.667,20.627c-3.283,0-5.944-3.635-5.944-8.121c0-4.485,2.661-8.121,5.944-8.121c3.283,0,5.944,3.636,5.944,8.121
	C25.61,16.992,22.949,20.627,19.667,20.627z"/>
</svg>
