<?xml version="1.0" encoding="utf-8"?>
<!-- Generator: Adobe Illustrator 16.0.0, SVG Export Plug-In . SVG Version: 6.00 Build 0)  -->
<!DOCTYPE svg PUBLIC "-//W3C//DTD SVG 1.1//EN" "http://www.w3.org/Graphics/SVG/1.1/DTD/svg11.dtd">
<svg version="1.1" id="图层_1" xmlns="http://www.w3.org/2000/svg" xmlns:xlink="http://www.w3.org/1999/xlink" x="0px" y="0px"
	 width="39.69px" height="39.69px" viewBox="0 0 39.69 39.69" enable-background="new 0 0 39.69 39.69" xml:space="preserve">
<path fill-rule="evenodd" clip-rule="evenodd" fill="none" d="M19.188,0.5C10.14,0.5,2.806,7.888,2.806,17.001
	s7.334,16.501,16.382,16.501c0.271,0,0.534-0.035,0.802-0.047l-2.732,2.751c-0.356,0.358-0.356,0.939,0,1.297l1.287,1.297
	c0.355,0.357,0.932,0.357,1.287,0l5.147-5.187l1.288-1.297c0.355-0.358,0.355-0.938,0-1.296l-1.288-1.297l-5.147-5.186
	c-0.355-0.357-0.932-0.357-1.287,0l-1.287,1.297c-0.356,0.357-0.356,0.938,0,1.296l2.624,2.643
	c-0.233,0.016-0.456,0.062-0.693,0.062c-7.037,0-12.741-5.745-12.741-12.834c0-7.087,5.705-12.833,12.741-12.833
	c7.036,0,12.742,5.746,12.742,12.833c0,2.738-0.879,5.252-2.33,7.334c0,0-1.197,0.635-1.312,1.833
	c-0.096,1.008,0.815,1.833,1.82,1.833c1.561,0,1.821-0.688,1.821-0.688c2.264-2.824,3.64-6.399,3.64-10.313
	C35.569,7.888,28.235,0.5,19.188,0.5z"/>
</svg>
