<?xml version="1.0" encoding="utf-8"?>
<!-- Generator: Adobe Illustrator 16.0.0, SVG Export Plug-In . SVG Version: 6.00 Build 0)  -->
<!DOCTYPE svg PUBLIC "-//W3C//DTD SVG 1.1//EN" "http://www.w3.org/Graphics/SVG/1.1/DTD/svg11.dtd">
<svg version="1.1" id="图层_1" xmlns="http://www.w3.org/2000/svg" xmlns:xlink="http://www.w3.org/1999/xlink" x="0px" y="0px"
	 width="39.69px" height="39.69px" viewBox="0 0 39.69 39.69" enable-background="new 0 0 39.69 39.69" xml:space="preserve">
<path fill-rule="evenodd" clip-rule="evenodd" fill="none" d="M34.736,38.875H5.327c-2.317,0-4.202-1.885-4.202-4.201V5.264
	c0-2.317,1.884-4.201,4.202-4.201h29.41c2.316,0,4.201,1.884,4.201,4.201v29.41C38.938,36.99,37.053,38.875,34.736,38.875z
	 M36.837,5.264c0-1.158-0.944-2.101-2.101-2.101H5.327c-1.158,0-2.101,0.943-2.101,2.101v29.41c0,1.159,0.943,2.101,2.101,2.101
	h29.41c1.156,0,2.101-0.941,2.101-2.101V5.264z M31.415,12.417c-0.911,5.467-5.662,9.652-11.384,9.652S9.56,17.885,8.647,12.417
	c-0.719-0.334-1.22-1.057-1.22-1.902c0-1.16,0.941-2.101,2.101-2.101s2.101,0.94,2.101,2.101c0,0.708-0.352,1.33-0.887,1.71
	c0.808,4.397,4.662,7.743,9.29,7.743c4.627,0,8.481-3.345,9.291-7.743c-0.535-0.381-0.888-1.003-0.888-1.71
	c0-1.16,0.939-2.101,2.1-2.101c1.161,0,2.101,0.94,2.101,2.101C32.635,11.36,32.135,12.083,31.415,12.417z"/>
</svg>
