<?xml version="1.0" encoding="utf-8"?>
<!-- Generator: Adobe Illustrator 16.0.0, SVG Export Plug-In . SVG Version: 6.00 Build 0)  -->
<!DOCTYPE svg PUBLIC "-//W3C//DTD SVG 1.1//EN" "http://www.w3.org/Graphics/SVG/1.1/DTD/svg11.dtd">
<svg version="1.1" id="图层_1" xmlns="http://www.w3.org/2000/svg" xmlns:xlink="http://www.w3.org/1999/xlink" x="0px" y="0px"
	 width="39.69px" height="39.69px" viewBox="0 0 39.69 39.69" enable-background="new 0 0 39.69 39.69" xml:space="preserve">
<path fill-rule="evenodd" clip-rule="evenodd" fill="none" d="M37.888,21.353H12.593c-0.583,0-1.054-0.471-1.054-1.054
	c0-0.582,0.472-1.054,1.054-1.054h25.294c0.582,0,1.054,0.472,1.054,1.054C38.941,20.881,38.47,21.353,37.888,21.353z M37.888,8.706
	H12.593c-0.583,0-1.054-0.472-1.054-1.054c0-0.582,0.472-1.054,1.054-1.054h25.294c0.582,0,1.054,0.472,1.054,1.054
	C38.941,8.233,38.47,8.706,37.888,8.706z M4.162,34H2.054C1.471,34,1,33.528,1,32.946c0-0.583,0.471-1.054,1.054-1.054h2.108
	c0.583,0,1.054,0.471,1.054,1.054C5.216,33.528,4.744,34,4.162,34z M4.162,21.353H2.054C1.471,21.353,1,20.881,1,20.299
	c0-0.582,0.471-1.054,1.054-1.054h2.108c0.583,0,1.054,0.472,1.054,1.054C5.216,20.881,4.744,21.353,4.162,21.353z M4.162,8.706
	H2.054C1.471,8.706,1,8.233,1,7.652C1,7.07,1.471,6.598,2.054,6.598h2.108c0.583,0,1.054,0.472,1.054,1.054
	C5.216,8.233,4.744,8.706,4.162,8.706z M12.593,31.893h25.294c0.582,0,1.054,0.471,1.054,1.054c0,0.582-0.472,1.054-1.054,1.054
	H12.593c-0.583,0-1.054-0.472-1.054-1.054C11.539,32.363,12.011,31.893,12.593,31.893z"/>
</svg>
