<?xml version="1.0" encoding="utf-8"?>
<!-- Generator: Adobe Illustrator 16.0.0, SVG Export Plug-In . SVG Version: 6.00 Build 0)  -->
<!DOCTYPE svg PUBLIC "-//W3C//DTD SVG 1.1//EN" "http://www.w3.org/Graphics/SVG/1.1/DTD/svg11.dtd">
<svg version="1.1" id="图层_1" xmlns="http://www.w3.org/2000/svg" xmlns:xlink="http://www.w3.org/1999/xlink" x="0px" y="0px"
	 width="39.69px" height="39.69px" viewBox="0 0 39.69 39.69" enable-background="new 0 0 39.69 39.69" xml:space="preserve">
<path fill-rule="evenodd" clip-rule="evenodd" fill="none" d="M37.622,30.52H4.58c-0.038,0.005-0.074,0.02-0.114,0.02
	c-0.053,0-0.108-0.011-0.161-0.02H1.94C1.421,30.52,1,30.099,1,29.58s0.421-0.938,0.94-0.938h1.791
	c0.563-2.299,2.342-9.438,3.722-13.556c1.62-4.837,4.553-11.183,11.358-11.728V2.376c0-0.519,0.421-0.939,0.94-0.939
	c0.521,0,0.941,0.42,0.941,0.939v0.971c4.785,0.429,8.404,4.191,11.043,11.47c0.748,2.062,1.688,5.144,2.792,9.16
	c0.138,0.5-0.156,1.018-0.658,1.155c-0.501,0.136-1.018-0.156-1.155-0.657c-1.076-3.913-2.025-7.031-2.747-9.019
	c-2.533-6.987-5.768-10.251-10.17-10.272c-0.016,0-0.028,0.009-0.045,0.009c-0.015,0-0.028-0.008-0.043-0.008
	c-4.752,0.022-8.081,3.358-10.471,10.496c-1.26,3.762-2.913,10.308-3.569,12.96h31.954c0.52,0,0.94,0.42,0.94,0.938
	S38.142,30.52,37.622,30.52z M14.418,34.432c0.448-0.263,1.025-0.109,1.286,0.34c0.858,1.472,2.371,2.351,4.047,2.351
	c1.677,0,3.191-0.879,4.048-2.351c0.261-0.447,0.838-0.602,1.286-0.34c0.448,0.261,0.602,0.836,0.339,1.284
	C24.245,37.741,22.071,39,19.751,39c-2.319,0-4.493-1.259-5.673-3.284C13.817,35.268,13.969,34.692,14.418,34.432z"/>
</svg>
