<?xml version="1.0" encoding="utf-8"?>
<!-- Generator: Adobe Illustrator 16.0.0, SVG Export Plug-In . SVG Version: 6.00 Build 0)  -->
<!DOCTYPE svg PUBLIC "-//W3C//DTD SVG 1.1//EN" "http://www.w3.org/Graphics/SVG/1.1/DTD/svg11.dtd">
<svg version="1.1" id="图层_1" xmlns="http://www.w3.org/2000/svg" xmlns:xlink="http://www.w3.org/1999/xlink" x="0px" y="0px"
	 width="39.69px" height="39.69px" viewBox="0 0 39.69 39.69" enable-background="new 0 0 39.69 39.69" xml:space="preserve">
<path fill-rule="evenodd" clip-rule="evenodd" fill="none" d="M37.633,19.175c-1.889,7.306-8.719,9.517-10.582,9.517
	c-0.016,0-0.031,0-0.047,0c-1.135-0.025-2.037-0.425-2.611-1.156c-0.213-0.271-0.418-0.654-0.534-1.162
	c-1.936,1.456-4.224,2.306-6.464,2.306c-1.343,0-2.593-0.296-3.714-0.882c-1.794-0.938-3.088-2.563-3.644-4.578
	C9.314,20.6,9.87,17.582,11.561,14.94c1.716-2.681,5.731-5.53,9.792-5.53c1.247,0,2.407,0.275,3.444,0.816
	c2.018,1.054,3.31,2.562,3.839,4.483c1.043,3.782-1.249,7.638-1.72,8.372c-0.333,0.521-0.713,1.002-1.113,1.461
	c-0.215,0.848-0.18,1.516,0.105,1.881c0.267,0.339,0.766,0.42,1.139,0.428c0.01,0.002,0.021,0.002,0.031,0.002
	c1.451,0,7.119-1.973,8.711-8.124c1.502-5.812-2.359-10.884-6.584-13.137c-0.395-0.213-9.804-5.087-19.084,2.372
	c-3.599,2.894-5.912,7.59-6.187,12.564c-0.23,4.168,1.008,7.924,3.397,10.304c6.729,6.705,21.112,4.738,26.235-0.008
	c0.379-0.35,0.98-0.339,1.346,0.029c0.363,0.365,0.35,0.947-0.03,1.3c-3.118,2.888-9.099,4.843-15.13,4.843
	c-5.135,0-10.308-1.418-13.786-4.883c-2.757-2.746-4.189-7.006-3.931-11.684c0.303-5.476,2.87-10.665,6.869-13.879
	C19.17-1.703,29.683,3.747,30.125,3.981C34.967,6.565,39.381,12.421,37.633,19.175z M26.797,15.183
	c-0.389-1.412-1.367-2.535-2.905-3.338c-0.757-0.395-1.61-0.595-2.539-0.595c-3.25,0-6.708,2.369-8.174,4.659
	c-1.417,2.213-1.891,4.705-1.303,6.835c0.425,1.543,1.362,2.73,2.71,3.434c0.84,0.439,1.785,0.662,2.809,0.662
	c2.963,0,6.066-1.855,7.903-4.726C26.398,20.396,27.45,17.55,26.797,15.183z"/>
</svg>
