<?xml version="1.0" encoding="utf-8"?>
<!-- Generator: Adobe Illustrator 16.0.0, SVG Export Plug-In . SVG Version: 6.00 Build 0)  -->
<!DOCTYPE svg PUBLIC "-//W3C//DTD SVG 1.1//EN" "http://www.w3.org/Graphics/SVG/1.1/DTD/svg11.dtd">
<svg version="1.1" id="图层_1" xmlns="http://www.w3.org/2000/svg" xmlns:xlink="http://www.w3.org/1999/xlink" x="0px" y="0px"
	 width="39.69px" height="39.69px" viewBox="0 0 39.69 39.69" enable-background="new 0 0 39.69 39.69" xml:space="preserve">
<path fill="none" d="M32.084,36.879c-0.604,0.347-1.354,0.421-2.232,0.22c-2.938-0.671-7.923-1.921-9.191-2.241
	c-1.255,0.458-6.255,2.279-9.105,3.248c-0.819,0.279-1.673,0.184-2.341-0.261c-0.501-0.335-1.123-1.016-1.236-2.363
	c-0.265-3.11-0.617-8.352-0.705-9.663c-0.772-1.052-3.847-5.25-5.614-7.762c-0.484-0.687-0.657-1.563-0.475-2.401
	c0.197-0.899,0.766-1.624,1.604-1.994c2.774-1.239,7.596-3.285,8.798-3.795c0.729-1.074,3.621-5.333,5.417-7.877
	c0.3-0.426,0.656-0.758,1.058-0.988c1.185-0.68,2.632-0.372,3.603,0.77c1.988,2.339,5.161,6.248,5.979,7.258
	c1.237,0.376,6.027,1.842,8.904,2.791c1.046,0.344,1.728,0.924,2.025,1.724c0.21,0.564,0.309,1.5-0.42,2.756
	c-1.567,2.703-4.235,7.068-4.914,8.176c0.026,1.333,0.125,6.679,0.114,9.792"/>
</svg>
