<?xml version="1.0" encoding="utf-8"?>
<!-- Generator: Adobe Illustrator 16.0.0, SVG Export Plug-In . SVG Version: 6.00 Build 0)  -->
<!DOCTYPE svg PUBLIC "-//W3C//DTD SVG 1.1//EN" "http://www.w3.org/Graphics/SVG/1.1/DTD/svg11.dtd">
<svg version="1.1" id="图层_1" xmlns="http://www.w3.org/2000/svg" xmlns:xlink="http://www.w3.org/1999/xlink" x="0px" y="0px"
	 width="39.69px" height="39.69px" viewBox="0 0 39.69 39.69" enable-background="new 0 0 39.69 39.69" xml:space="preserve">
<path fill-rule="evenodd" clip-rule="evenodd" fill="none" d="M38.766,22.086c-0.177,0.171-0.409,0.258-0.642,0.258
	s-0.464-0.087-0.641-0.258L19.986,5.126L7.29,17.433v16.338c0,0.97,0.814,1.759,1.814,1.759h5.441v-7.912
	c0-0.485,0.406-0.879,0.907-0.879h9.069c0.502,0,0.907,0.394,0.907,0.879c0,0.486-0.405,0.879-0.907,0.879h-8.162v7.912
	c0,0.486-0.406,0.879-0.907,0.879H9.104c-2.001,0-3.628-1.577-3.628-3.517v-14.58l-2.986,2.895c-0.354,0.343-0.929,0.343-1.283,0
	c-0.354-0.344-0.354-0.899,0-1.243l4.534-4.395c0.001-0.001,0.001-0.001,0.002-0.002L19.345,3.261c0.354-0.344,0.928-0.344,1.282,0
	l18.138,17.582C39.119,21.187,39.119,21.742,38.766,22.086z M24.521,35.529h6.349c1,0,1.813-0.789,1.813-1.759v-9.67
	c0-0.485,0.406-0.879,0.906-0.879c0.502,0,0.907,0.394,0.907,0.879v9.67c0,1.939-1.626,3.517-3.627,3.517h-6.349
	c-0.501,0-0.906-0.393-0.906-0.879S24.02,35.529,24.521,35.529z"/>
</svg>
